<svg width="36" height="37" viewBox="0 0 36 37" fill="none" xmlns="http://www.w3.org/2000/svg">
<path d="M26.5189 6.23355V3.12774C26.5189 2.85855 26.2095 2.70989 26.0006 2.87462L7.88805 17.0215C7.73416 17.1412 7.60964 17.2944 7.52398 17.4695C7.43833 17.6447 7.3938 17.837 7.3938 18.032C7.3938 18.2269 7.43833 18.4193 7.52398 18.5944C7.60964 18.7696 7.73416 18.9228 7.88805 19.0425L26.0006 33.1894C26.2135 33.3541 26.5189 33.2054 26.5189 32.9362V29.8304C26.5189 29.6335 26.4264 29.4447 26.2738 29.3242L11.8095 18.034L26.2738 6.7398C26.4264 6.61926 26.5189 6.43042 26.5189 6.23355V6.23355Z" fill="black" fill-opacity="0.85"/>
</svg>
