<svg width="36" height="37" viewBox="0 0 36 37" fill="none" xmlns="http://www.w3.org/2000/svg">
<path d="M28.1933 17.0231L10.0808 2.87623C10.0335 2.83897 9.9766 2.81582 9.9167 2.80943C9.85681 2.80303 9.79632 2.81366 9.7422 2.8401C9.68807 2.86653 9.6425 2.9077 9.61071 2.95886C9.57893 3.01003 9.56222 3.06912 9.5625 3.12936V6.23516C9.5625 6.43204 9.65491 6.62088 9.80759 6.74141L24.2719 18.0356L9.80759 29.3298C9.6509 29.4503 9.5625 29.6392 9.5625 29.8361V32.9419C9.5625 33.2111 9.87188 33.3597 10.0808 33.195L28.1933 19.0481C28.3473 18.928 28.4718 18.7744 28.5574 18.599C28.6431 18.4235 28.6876 18.2309 28.6876 18.0356C28.6876 17.8404 28.6431 17.6477 28.5574 17.4722C28.4718 17.2968 28.3473 17.1432 28.1933 17.0231Z" fill="black" fill-opacity="0.85"/>
</svg>
